<svg fill="#ffa000" xmlns="http://www.w3.org/2000/svg" xmlns:xlink="http://www.w3.org/1999/xlink" version="1.1" x="0px" y="0px" viewBox="0 0 100 125" enable-background="new 0 0 100 100" xml:space="preserve"><path d="M83.778,49.925c0.477,7.589-4.391,13.313-4.391,13.313c4.964-7.637-8.21-23.101-8.21-23.101  c3.055,4.582-1.718,15.465-9.164,14.511c-7.446-0.955-2.673-11.454-2.673-11.454c13.555-30.738-4.773-35.89-4.773-35.89  c6.3,26.538-21.765,35.327-21.765,35.327c1.909-5.536-2.424-11.939-2.425-11.94c1.564,2.311-4.933,7.948-6.185,9.203  c-3.006,3.013-5.283,5.732-6.935,9.708c-1.657,3.986-2.722,8.441-2.893,12.894c-0.195,5.051,0.76,10.1,3.305,14.465  c3.294,5.65,13.84,15.734,21.044,15.734c0.006,0,1.714,0,4.289,0C18.845,70.52,27.697,56.261,27.697,56.261  c1.245,4.98,9.648,9.026,9.648,9.026c1.556-15.251,12.138-18.674,12.138-18.674c-10.271,12.138,1.867,32.369,8.403,32.369  c6.536,0,7.158-6.536,7.158-6.536c2.918,3.592-3.715,14.462-7.64,20.25c5.735,0,10.564,0,10.564,0  C93.706,84.643,83.778,49.925,83.778,49.925z"/></svg>