<?xml version="1.0" encoding="UTF-8" standalone="no"?>
<!-- Created with Inkscape (http://www.inkscape.org/) -->

<svg
   xmlns:dc="http://purl.org/dc/elements/1.1/"
   xmlns:cc="http://creativecommons.org/ns#"
   xmlns:rdf="http://www.w3.org/1999/02/22-rdf-syntax-ns#"
   xmlns:svg="http://www.w3.org/2000/svg"
   xmlns="http://www.w3.org/2000/svg"
   xmlns:sodipodi="http://sodipodi.sourceforge.net/DTD/sodipodi-0.dtd"
   xmlns:inkscape="http://www.inkscape.org/namespaces/inkscape"
   id="svg3505"
   version="1.1"
   inkscape:version="0.91 r13725"
   xml:space="preserve"
   width="133.75"
   height="133.75"
   viewBox="0 0 133.75 133.75"
   sodipodi:docname="logo-sml.svg"><metadata
     id="metadata3511"><rdf:RDF><cc:Work
         rdf:about=""><dc:format>image/svg+xml</dc:format><dc:type
           rdf:resource="http://purl.org/dc/dcmitype/StillImage" /><dc:title></dc:title></cc:Work></rdf:RDF></metadata><defs
     id="defs3509"><clipPath
       clipPathUnits="userSpaceOnUse"
       id="clipPath3521"><path
         d="M 0,0 311,0 311,107 0,107 0,0 Z"
         id="path3523"
         inkscape:connector-curvature="0" /></clipPath></defs><sodipodi:namedview
     pagecolor="#ffffff"
     bordercolor="#666666"
     borderopacity="1"
     objecttolerance="10"
     gridtolerance="10"
     guidetolerance="10"
     inkscape:pageopacity="0"
     inkscape:pageshadow="2"
     inkscape:window-width="1276"
     inkscape:window-height="756"
     id="namedview3507"
     showgrid="false"
     inkscape:zoom="2.5825942"
     inkscape:cx="12.911141"
     inkscape:cy="53.459707"
     inkscape:window-x="4"
     inkscape:window-y="0"
     inkscape:window-maximized="1"
     inkscape:current-layer="g3672"
     showborder="true" /><g
     id="g3513"
     inkscape:groupmode="layer"
     inkscape:label="reece distributing emb logo"
     transform="matrix(1.25,0,0,-1.25,0,133.75)"><g
       id="g3515" /><g
       id="g3517"><g
         id="g3519"
         clip-path="url(#clipPath3521)"><g
           id="g3672"
           transform="matrix(1.041611,0,0,1.041611,-6.3214515,-14.352495)"><g
             id="g3701"
             transform="matrix(1.3889505,0,0,1.3889505,-179.26565,9.7621967)"><path
               d="m 150.45146,15.422612 c -1.351,1.587 -2.638,3.906 -3.831,6.922 -1.194,3.016 -2.293,5.652 -3.329,7.938 -0.032,0.095 -0.063,0.095 -0.157,0 -1.068,-2.509 -2.042,-4.985 -2.889,-7.462 -0.817,-2.476 -1.759,-5.334 -2.732,-8.541 -0.032,-0.095 -0.095,-0.159 -0.22,-0.159 -0.691,-0.032 -1.225,0.572 -1.633,1.81 -0.377,1.207 -0.66,2.096 -0.848,2.572 0.879,3.905 2.01,7.906 3.391,11.907 0.575,1.676 1.16,3.292 1.756,4.849 0.838,2.19 1.697,4.265 2.578,6.232 1.507,3.366 2.984,6.192 4.428,8.542 1.476,2.349 2.701,3.841 3.737,4.476 0.785,0.477 1.79,0.699 3.015,0.667 1.224,0 2.481,-0.635 3.768,-1.873 0.095,-0.127 0.095,-0.223 -0.031,-0.318 -1.978,-1.206 -4.02,-3.492 -6.061,-6.826 -2.041,-3.366 -3.831,-6.446 -5.307,-9.272 -0.126,-0.222 -0.063,-0.317 0.125,-0.254 2.576,0.826 5.245,1.969 7.946,3.429 2.732,1.461 5.181,3.176 7.379,5.112 2.481,2.192 4.303,4.7 5.528,7.494 1.224,2.826 0.816,4.794 -1.225,5.906 -2.23,1.206 -4.899,1.46 -8.071,0.794 -3.172,-0.668 -6.312,-1.81 -9.359,-3.366 -3.077,-1.588 -5.809,-3.366 -8.259,-5.366 -2.418,-1.969 -3.956,-3.683 -4.679,-5.112 -0.282,-0.286 -0.534,0.349 -0.784,1.905 -0.252,1.524 -0.221,2.921 0.094,4.191 0.627,2.572 3.014,5.493 7.191,8.764 4.176,3.302 9.233,5.143 15.199,5.524 3.643,0.254 6.721,-0.349 9.296,-1.81 2.575,-1.46 3.768,-3.905 3.611,-7.334 -0.094,-1.778 -0.439,-3.398 -1.067,-4.795 -0.628,-1.397 -1.476,-2.826 -2.482,-4.286 -1.13,-1.619 -2.543,-3.144 -4.239,-4.636 -1.696,-1.492 -3.454,-2.858 -5.276,-4.064 -1.79,-1.206 -3.549,-2.286 -5.275,-3.175 -1.696,-0.858 -3.109,-1.524 -4.24,-1.905 -0.157,-0.064 -0.22,-0.223 -0.157,-0.445 0.659,-2.445 1.57,-5.048 2.732,-7.811 1.193,-2.794 2.167,-4.731 2.889,-5.874 0.879,-1.365 1.728,-2.032 2.513,-1.969 0.785,0.064 1.507,0.445 2.167,1.144 0.627,0.73 1.193,1.524 1.632,2.476 0.44,0.921 0.786,1.556 0.974,1.873 0.408,-0.349 0.596,-0.73 0.533,-1.143 -0.031,-0.381 -0.094,-0.698 -0.156,-0.92 -0.628,-1.842 -2.041,-3.811 -4.209,-5.906 -2.166,-2.096 -4.176,-2.064 -5.966,0.095"
               style="fill:#e45e30;fill-opacity:1;fill-rule:evenodd;stroke:none"
               id="path3525"
               inkscape:connector-curvature="0" /><path
               d="m 174.73587,19.832132 c -0.623,-0.127 -1.184,0.351 -1.651,1.402 -0.467,1.083 -0.779,1.816 -0.935,2.294 0.219,1.274 0.53,2.676 0.966,4.269 0,0.095 0,0.127 -0.062,0.127 -2.616,-1.911 -3.831,-4.078 -3.613,-6.499 0.249,-2.804 1.837,-4.365 4.734,-4.683 2.865,-0.287 5.886,0.382 9.094,1.975 1.402,0.733 2.99,1.784 4.765,3.186 1.838,1.465 3.644,3.313 5.451,5.575 1.806,2.262 3.177,4.237 4.08,5.926 -1.121,0.095 -2.398,0.127 -3.924,0.095 -1.495,-0.063 -3.177,-0.191 -4.984,-0.382 -3.644,-0.478 -7.07,-1.306 -10.277,-2.517 -0.063,-0.063 -0.063,-0.095 -0.063,-0.095 -0.031,-0.064 -0.062,-0.096 -0.062,-0.128 -0.903,-2.357 -1.526,-4.077 -1.931,-5.193 -0.374,-1.019 -0.903,-2.803 -1.588,-5.352 z m -0.063,13.476 c 1.246,3.792 2.648,7.137 4.174,10.1 2.554,5.033 4.796,8.06 6.696,9.111 0.716,0.382 1.651,0.287 2.834,-0.287 1.152,-0.605 2.149,-1.465 2.99,-2.612 0.062,-0.128 0.062,-0.191 0,-0.191 -1.184,-0.128 -2.772,-1.498 -4.859,-4.142 -2.118,-2.708 -4.08,-5.862 -5.855,-9.43 -0.062,-0.223 -0.031,-0.287 0.094,-0.255 2.74,0.701 5.699,1.115 8.876,1.274 3.208,0.096 6.26,-0.063 9.156,-0.478 0.779,1.753 1.495,3.569 2.149,5.512 0.623,1.88 1.121,3.855 1.433,5.894 0.623,4.173 0.405,7.136 -0.623,8.92 -1.059,1.785 -2.46,2.836 -4.298,3.123 -1.806,0.254 -3.768,0.031 -5.917,-0.765 -2.149,-0.765 -3.987,-1.625 -5.544,-2.549 -2.305,-1.402 -4.921,-3.313 -7.817,-5.798 -2.928,-2.453 -5.357,-4.938 -7.288,-7.455 -0.249,-0.351 -0.467,0.414 -0.654,2.23 -0.218,1.784 -0.156,2.963 0.124,3.632 0.841,2.134 2.305,4.333 4.454,6.563 2.118,2.198 4.547,4.078 7.288,5.607 2.304,1.306 4.796,2.262 7.475,2.899 2.585,0.542 5.045,0.446 7.35,-0.255 1.744,-0.541 3.394,-1.529 4.889,-2.995 1.495,-1.465 2.71,-3.504 3.675,-6.052 0.935,-2.581 1.091,-5.671 0.436,-9.24 -0.622,-3.536 -1.681,-6.881 -3.145,-10.067 0.374,-0.191 0.747,-0.35 1.059,-0.478 0.405,-0.191 0.716,-0.382 0.965,-0.573 0.374,-0.383 0.592,-0.892 0.623,-1.53 0.032,-0.732 -0.031,-1.019 -0.187,-0.955 -0.592,0.127 -1.183,0.286 -1.775,0.51 -0.592,0.223 -1.152,0.382 -1.744,0.477 -0.934,-1.815 -1.962,-3.536 -3.114,-5.129 -1.184,-1.593 -2.399,-3.09 -3.676,-4.492 -2.896,-3.122 -6.042,-5.511 -9.406,-7.168 -3.394,-1.657 -6.726,-2.485 -9.966,-2.485 -1.65,0.032 -3.363,0.478 -5.107,1.306 -1.744,0.86 -2.741,2.708 -3.052,5.544 -0.312,2.994 0.435,5.766 2.242,8.379 0.804,1.133 1.866,2.174 3.186,3.122 0.572,0.41 1.191,0.803 1.859,1.178"
               style="fill:#e45e30;fill-opacity:1;fill-rule:evenodd;stroke:none"
               id="path3529"
               inkscape:connector-curvature="0" /></g></g></g></g></g></svg>