<?xml version="1.0" encoding="UTF-8" standalone="no"?>
<!-- Created with Inkscape (http://www.inkscape.org/) -->

<svg
   xmlns:dc="http://purl.org/dc/elements/1.1/"
   xmlns:cc="http://creativecommons.org/ns#"
   xmlns:rdf="http://www.w3.org/1999/02/22-rdf-syntax-ns#"
   xmlns:svg="http://www.w3.org/2000/svg"
   xmlns="http://www.w3.org/2000/svg"
   xmlns:sodipodi="http://sodipodi.sourceforge.net/DTD/sodipodi-0.dtd"
   xmlns:inkscape="http://www.inkscape.org/namespaces/inkscape"
   id="svg3505"
   version="1.1"
   inkscape:version="0.91 r13725"
   xml:space="preserve"
   width="388.75"
   height="133.75"
   viewBox="0 0 388.75 133.75"
   sodipodi:docname="logo_.svg"><metadata
     id="metadata3511"><rdf:RDF><cc:Work
         rdf:about=""><dc:format>image/svg+xml</dc:format><dc:type
           rdf:resource="http://purl.org/dc/dcmitype/StillImage" /><dc:title></dc:title></cc:Work></rdf:RDF></metadata><defs
     id="defs3509"><clipPath
       clipPathUnits="userSpaceOnUse"
       id="clipPath3521"><path
         d="M 0,0 311,0 311,107 0,107 0,0 Z"
         id="path3523"
         inkscape:connector-curvature="0" /></clipPath></defs><sodipodi:namedview
     pagecolor="#ffffff"
     bordercolor="#666666"
     borderopacity="1"
     objecttolerance="10"
     gridtolerance="10"
     guidetolerance="10"
     inkscape:pageopacity="0"
     inkscape:pageshadow="2"
     inkscape:window-width="1276"
     inkscape:window-height="756"
     id="namedview3507"
     showgrid="false"
     inkscape:zoom="0.91308493"
     inkscape:cx="23.532226"
     inkscape:cy="46.131403"
     inkscape:window-x="4"
     inkscape:window-y="0"
     inkscape:window-maximized="1"
     inkscape:current-layer="g3519" /><g
     id="g3513"
     inkscape:groupmode="layer"
     inkscape:label="reece distributing emb logo"
     transform="matrix(1.25,0,0,-1.25,0,133.75)"><g
       id="g3515" /><g
       id="g3517"><g
         id="g3519"
         clip-path="url(#clipPath3521)"><g
           id="g3672"
           transform="matrix(1.041611,0,0,1.041611,-6.3214515,-14.352495)"><path
             inkscape:connector-curvature="0"
             id="path3525"
             style="fill:#d32f2f;fill-opacity:1;fill-rule:evenodd;stroke:none"
             d="m 23.899,32.642 c -1.351,1.587 -2.638,3.906 -3.831,6.922 -1.194,3.016 -2.293,5.652 -3.329,7.938 -0.032,0.095 -0.063,0.095 -0.157,0 -1.068,-2.509 -2.042,-4.985 -2.889,-7.462 -0.817,-2.476 -1.759,-5.334 -2.732,-8.541 -0.032,-0.095 -0.095,-0.159 -0.22,-0.159 -0.691,-0.032 -1.225,0.572 -1.633,1.81 -0.377,1.207 -0.66,2.096 -0.848,2.572 0.879,3.905 2.01,7.906 3.391,11.907 0.575,1.676 1.16,3.292 1.756,4.849 0.838,2.19 1.697,4.265 2.578,6.232 1.507,3.366 2.984,6.192 4.428,8.542 1.476,2.349 2.701,3.841 3.737,4.476 0.785,0.477 1.79,0.699 3.015,0.667 1.224,0 2.481,-0.635 3.768,-1.873 0.095,-0.127 0.095,-0.223 -0.031,-0.318 -1.978,-1.206 -4.02,-3.492 -6.061,-6.826 -2.041,-3.366 -3.831,-6.446 -5.307,-9.272 -0.126,-0.222 -0.063,-0.317 0.125,-0.254 2.576,0.826 5.245,1.969 7.946,3.429 2.732,1.461 5.181,3.176 7.379,5.112 2.481,2.192 4.303,4.7 5.528,7.494 1.224,2.826 0.816,4.794 -1.225,5.906 -2.23,1.206 -4.899,1.46 -8.071,0.794 -3.172,-0.668 -6.312,-1.81 -9.359,-3.366 C 18.78,71.633 16.048,69.855 13.598,67.855 11.18,65.886 9.642,64.172 8.919,62.743 8.637,62.457 8.385,63.092 8.135,64.648 c -0.252,1.524 -0.221,2.921 0.094,4.191 0.627,2.572 3.014,5.493 7.191,8.764 4.176,3.302 9.233,5.143 15.199,5.524 3.643,0.254 6.721,-0.349 9.296,-1.81 2.575,-1.46 3.768,-3.905 3.611,-7.334 -0.094,-1.778 -0.439,-3.398 -1.067,-4.795 -0.628,-1.397 -1.476,-2.826 -2.482,-4.286 -1.13,-1.619 -2.543,-3.144 -4.239,-4.636 -1.696,-1.492 -3.454,-2.858 -5.276,-4.064 -1.79,-1.206 -3.549,-2.286 -5.275,-3.175 -1.696,-0.858 -3.109,-1.524 -4.24,-1.905 -0.157,-0.064 -0.22,-0.223 -0.157,-0.445 0.659,-2.445 1.57,-5.048 2.732,-7.811 1.193,-2.794 2.167,-4.731 2.889,-5.874 0.879,-1.365 1.728,-2.032 2.513,-1.969 0.785,0.064 1.507,0.445 2.167,1.144 0.627,0.73 1.193,1.524 1.632,2.476 0.44,0.921 0.786,1.556 0.974,1.873 0.408,-0.349 0.596,-0.73 0.533,-1.143 -0.031,-0.381 -0.094,-0.698 -0.156,-0.92 -0.628,-1.842 -2.041,-3.811 -4.209,-5.906 -2.166,-2.096 -4.176,-2.064 -5.966,0.095" /><path
             inkscape:connector-curvature="0"
             id="path3527"
             style="fill:#d32f2f;fill-opacity:1;fill-rule:evenodd;stroke:none"
             d="m 88.482,58.784 c 0.375,0.062 1.001,0.379 1.815,0.948 0.875,0.663 1.689,1.359 2.408,2.086 0.782,0.727 1.439,1.549 2.033,2.434 0.563,0.854 0.845,1.612 0.845,2.245 -0.032,0.6 -0.188,1.043 -0.47,1.296 -0.312,0.158 -0.782,0.095 -1.407,-0.19 -1.22,-0.695 -2.315,-1.802 -3.253,-3.319 -0.438,-0.696 -0.813,-1.423 -1.189,-2.213 0.063,-0.19 0.094,-0.38 0.094,-0.632 -0.157,-0.095 -0.313,-0.19 -0.469,-0.285 -0.25,-0.632 -0.501,-1.296 -0.72,-2.023 -0.094,-0.221 -0.094,-0.379 0.031,-0.379 0.032,-0.032 0.094,-0.032 0.282,0.032 z M 44.158,55.021 c 0.376,0.064 1.001,0.38 1.814,0.98 0.876,0.633 1.69,1.328 2.409,2.055 0.782,0.759 1.439,1.549 2.033,2.434 0.564,0.854 0.845,1.613 0.814,2.276 0,0.601 -0.157,1.012 -0.438,1.265 -0.313,0.158 -0.782,0.095 -1.408,-0.19 -1.251,-0.664 -2.314,-1.77 -3.253,-3.319 -0.907,-1.454 -1.658,-3.161 -2.284,-5.121 -0.094,-0.253 -0.094,-0.38 0.031,-0.411 0.032,-0.032 0.094,0 0.282,0.031 z m -0.907,-2.276 c -0.469,-1.833 -0.594,-3.382 -0.407,-4.678 0.188,-1.36 0.689,-1.992 1.502,-1.929 0.97,0.064 2.158,0.665 3.534,1.866 0.564,0.474 1.095,1.043 1.627,1.643 0.532,0.633 1.032,1.265 1.564,1.961 0.501,0.632 0.97,1.327 1.47,2.023 0.282,0.442 0.595,0.821 0.876,1.232 0.125,0.664 0.282,1.328 0.469,1.992 0.407,1.328 0.813,2.561 1.283,3.699 0.531,1.106 1.095,2.181 1.752,3.256 0.75,1.169 1.532,2.212 2.314,3.034 0.876,0.886 1.752,1.581 2.691,2.023 0.938,0.475 1.907,0.538 2.94,0.285 1.282,-0.443 2.189,-1.075 2.752,-1.992 0.563,-1.043 0.657,-2.307 0.313,-3.825 -0.469,-1.865 -1.876,-3.919 -4.254,-6.164 -2.409,-2.276 -4.254,-3.351 -5.599,-3.161 -0.469,-1.833 -0.594,-3.382 -0.376,-4.679 0.157,-1.359 0.657,-1.991 1.502,-1.928 0.97,0.063 2.158,0.664 3.504,1.865 0.562,0.474 1.125,1.043 1.626,1.644 0.532,0.632 1.063,1.265 1.564,1.928 0.5,0.664 1.001,1.36 1.501,2.055 l 0.125,0.19 c 0.032,0.253 0.094,0.505 0.157,0.758 0.344,1.771 0.907,3.541 1.689,5.248 0.751,1.707 1.564,3.193 2.471,4.457 1.658,2.308 3.472,3.73 5.412,4.299 2.001,0.538 3.628,0 4.942,-1.612 0.563,-0.758 0.907,-1.454 1.063,-2.149 0.094,-0.759 -0.031,-1.454 -0.406,-2.055 0.125,0.221 0,0.031 -0.345,-0.632 -0.218,-0.317 -0.406,-0.728 -0.625,-1.17 -0.626,-1.233 -1.126,-2.403 -1.47,-3.541 -0.219,0.158 -0.469,0.411 -0.719,0.696 -0.313,0.284 -0.501,0.569 -0.657,0.853 -0.407,0.759 -0.344,1.518 0.125,2.277 0.156,0.189 0.344,0.474 0.532,0.853 0.25,0.316 0.469,0.759 0.75,1.328 0.532,1.138 0.469,1.644 -0.25,1.517 -0.782,-0.19 -1.689,-0.822 -2.722,-1.833 -1.219,-1.233 -2.314,-2.688 -3.253,-4.363 -0.938,-1.675 -1.72,-3.414 -2.314,-5.216 -0.282,-0.853 -0.501,-1.991 -0.657,-3.414 -0.188,-1.454 0.156,-2.308 0.969,-2.624 0.595,-0.252 1.283,-0.221 2.034,0.095 0.719,0.348 1.47,0.79 2.189,1.391 0.72,0.569 1.408,1.201 2.065,1.897 0.625,0.695 1.189,1.327 1.626,1.833 0.595,0.728 1.158,1.391 1.689,2.055 0.344,0.474 0.72,0.98 1.095,1.423 0.125,0.632 0.282,1.264 0.469,1.896 0.376,1.328 0.814,2.561 1.283,3.699 0.5,1.106 1.095,2.181 1.751,3.256 0.751,1.17 1.502,2.213 2.315,3.035 0.845,0.885 1.752,1.58 2.691,2.023 0.907,0.442 1.908,0.537 2.908,0.284 1.283,-0.442 2.221,-1.106 2.784,-1.991 0.563,-1.043 0.657,-2.308 0.282,-3.825 -0.469,-1.865 -1.877,-3.92 -4.254,-6.196 -2.409,-2.276 -4.254,-3.319 -5.568,-3.161 -0.469,-1.802 -0.594,-3.351 -0.375,-4.647 0.156,-1.36 0.657,-1.992 1.47,-1.929 1.001,0.032 2.158,0.664 3.534,1.865 0.564,0.475 1.095,1.044 1.627,1.644 0.532,0.632 1.032,1.265 1.564,1.929 0.5,0.663 0.97,1.327 1.47,2.054 0.501,0.696 0.97,1.392 1.439,2.024 1.095,1.517 2.002,2.655 2.784,3.414 0.563,0.537 1.095,0.569 1.595,0.094 0.501,-0.442 0.657,-0.727 0.501,-0.885 -0.376,-0.221 -0.813,-0.569 -1.283,-0.98 -0.281,-0.221 -0.656,-0.6 -1.188,-1.138 -0.532,-0.537 -1.032,-1.106 -1.502,-1.738 -0.469,-0.601 -0.907,-1.202 -1.345,-1.802 -0.469,-0.601 -0.938,-1.202 -1.407,-1.802 -0.438,-0.601 -0.908,-1.201 -1.346,-1.77 -0.969,-1.296 -1.877,-2.403 -2.752,-3.225 -0.501,-0.506 -0.938,-0.916 -1.345,-1.264 -0.407,-0.348 -0.907,-0.664 -1.47,-0.917 -0.97,-0.443 -1.94,-0.664 -2.941,-0.632 -0.969,0.032 -1.783,0.347 -2.44,1.043 -0.813,0.79 -1.344,1.833 -1.564,3.098 -0.187,1.043 -0.25,2.149 -0.156,3.382 l -0.063,-0.126 c -0.75,-0.948 -1.47,-1.802 -2.189,-2.56 -0.625,-0.696 -1.376,-1.486 -2.283,-2.372 -0.907,-0.916 -1.846,-1.675 -2.816,-2.307 -1.783,-1.202 -3.409,-1.486 -4.848,-0.822 -1.533,0.664 -2.471,2.213 -2.784,4.584 -0.063,0.6 -0.125,1.201 -0.125,1.833 l -0.344,-0.443 c -0.47,-0.6 -0.907,-1.201 -1.346,-1.77 -0.969,-1.296 -1.908,-2.37 -2.752,-3.224 -0.501,-0.474 -0.938,-0.917 -1.376,-1.264 -0.407,-0.349 -0.908,-0.665 -1.47,-0.917 -0.97,-0.443 -1.94,-0.633 -2.91,-0.633 -1,0.032 -1.814,0.38 -2.44,1.044 -0.844,0.79 -1.344,1.833 -1.563,3.098 -0.188,1.074 -0.251,2.244 -0.157,3.508 -0.281,-0.379 -0.563,-0.727 -0.844,-1.106 -0.438,-0.569 -0.907,-1.17 -1.345,-1.77 -0.97,-1.296 -1.877,-2.371 -2.753,-3.224 -0.5,-0.475 -0.938,-0.886 -1.345,-1.265 -0.407,-0.348 -0.907,-0.632 -1.47,-0.917 -0.97,-0.442 -1.94,-0.632 -2.941,-0.632 -0.969,0.031 -1.782,0.379 -2.439,1.043 -0.814,0.791 -1.345,1.833 -1.564,3.098 -0.22,1.265 -0.251,2.624 -0.094,4.141 0.188,1.454 0.469,2.877 0.876,4.299 0.375,1.328 0.813,2.561 1.282,3.699 0.501,1.106 1.095,2.181 1.751,3.256 0.751,1.201 1.502,2.213 2.316,3.067 0.844,0.853 1.751,1.548 2.69,2.023 0.907,0.442 1.908,0.537 2.909,0.253 1.282,-0.411 2.221,-1.075 2.784,-1.96 0.563,-1.075 0.657,-2.34 0.281,-3.857 -0.469,-1.865 -1.877,-3.92 -4.254,-6.164 -2.409,-2.276 -4.254,-3.32 -5.568,-3.162 z m 15.734,3.541 c 0.407,0.063 1.001,0.379 1.846,0.948 0.875,0.664 1.689,1.359 2.408,2.087 0.751,0.727 1.439,1.549 2.002,2.434 0.563,0.853 0.845,1.612 0.845,2.276 -0.031,0.569 -0.188,1.011 -0.439,1.264 -0.312,0.158 -0.781,0.095 -1.438,-0.189 -1.22,-0.696 -2.283,-1.771 -3.222,-3.32 -0.907,-1.454 -1.689,-3.161 -2.284,-5.121 -0.125,-0.253 -0.125,-0.379 0,-0.411 0.032,-0.031 0.125,-0.031 0.282,0.032" /><path
             inkscape:connector-curvature="0"
             id="path3529"
             style="fill:#d32f2f;fill-opacity:1;fill-rule:evenodd;stroke:none"
             d="m 118.902,47.976 c -0.623,-0.127 -1.184,0.351 -1.651,1.402 -0.467,1.083 -0.779,1.816 -0.935,2.294 0.219,1.274 0.53,2.676 0.966,4.269 0,0.095 0,0.127 -0.062,0.127 -2.616,-1.911 -3.831,-4.078 -3.613,-6.499 0.249,-2.804 1.837,-4.365 4.734,-4.683 2.865,-0.287 5.886,0.382 9.094,1.975 1.402,0.733 2.99,1.784 4.765,3.186 1.838,1.465 3.644,3.313 5.451,5.575 1.806,2.262 3.177,4.237 4.08,5.926 -1.121,0.095 -2.398,0.127 -3.924,0.095 -1.495,-0.063 -3.177,-0.191 -4.984,-0.382 -3.644,-0.478 -7.07,-1.306 -10.277,-2.517 -0.063,-0.063 -0.063,-0.095 -0.063,-0.095 -0.031,-0.064 -0.062,-0.096 -0.062,-0.128 -0.903,-2.357 -1.526,-4.077 -1.931,-5.193 -0.374,-1.019 -0.903,-2.803 -1.588,-5.352 z m -0.063,13.476 c 1.246,3.792 2.648,7.137 4.174,10.1 2.554,5.033 4.796,8.06 6.696,9.111 0.716,0.382 1.651,0.287 2.834,-0.287 1.152,-0.605 2.149,-1.465 2.99,-2.612 0.062,-0.128 0.062,-0.191 0,-0.191 -1.184,-0.128 -2.772,-1.498 -4.859,-4.142 -2.118,-2.708 -4.08,-5.862 -5.855,-9.43 -0.062,-0.223 -0.031,-0.287 0.094,-0.255 2.74,0.701 5.699,1.115 8.876,1.274 3.208,0.096 6.26,-0.063 9.156,-0.478 0.779,1.753 1.495,3.569 2.149,5.512 0.623,1.88 1.121,3.855 1.433,5.894 0.623,4.173 0.405,7.136 -0.623,8.92 -1.059,1.785 -2.46,2.836 -4.298,3.123 -1.806,0.254 -3.768,0.031 -5.917,-0.765 -2.149,-0.765 -3.987,-1.625 -5.544,-2.549 -2.305,-1.402 -4.921,-3.313 -7.817,-5.798 -2.928,-2.453 -5.357,-4.938 -7.288,-7.455 -0.249,-0.351 -0.467,0.414 -0.654,2.23 -0.218,1.784 -0.156,2.963 0.124,3.632 0.841,2.134 2.305,4.333 4.454,6.563 2.118,2.198 4.547,4.078 7.288,5.607 2.304,1.306 4.796,2.262 7.475,2.899 2.585,0.542 5.045,0.446 7.35,-0.255 1.744,-0.541 3.394,-1.529 4.889,-2.995 1.495,-1.465 2.71,-3.504 3.675,-6.052 0.935,-2.581 1.091,-5.671 0.436,-9.24 -0.622,-3.536 -1.681,-6.881 -3.145,-10.067 0.374,-0.191 0.747,-0.35 1.059,-0.478 0.405,-0.191 0.716,-0.382 0.965,-0.573 0.374,-0.383 0.592,-0.892 0.623,-1.53 0.032,-0.732 -0.031,-1.019 -0.187,-0.955 -0.592,0.127 -1.183,0.286 -1.775,0.51 -0.592,0.223 -1.152,0.382 -1.744,0.477 -0.934,-1.815 -1.962,-3.536 -3.114,-5.129 -1.184,-1.593 -2.399,-3.09 -3.676,-4.492 -2.896,-3.122 -6.042,-5.511 -9.406,-7.168 -3.394,-1.657 -6.726,-2.485 -9.966,-2.485 -1.65,0.032 -3.363,0.478 -5.107,1.306 -1.744,0.86 -2.741,2.708 -3.052,5.544 -0.312,2.994 0.435,5.766 2.242,8.379 0.804,1.133 1.866,2.174 3.186,3.122 0.572,0.41 1.191,0.803 1.859,1.178" /><path
             inkscape:connector-curvature="0"
             id="path3531"
             style="fill:#d32f2f;fill-opacity:1;fill-rule:evenodd;stroke:none"
             d="m 159.53,70.717 c -0.218,0.059 -0.4,0.146 -0.587,0.271 -0.682,0.561 -0.879,1.393 -0.942,2.225 -0.049,1.133 0.205,2.206 0.659,3.246 0.461,0.904 1.04,1.722 1.918,2.287 0.668,0.4 1.354,0.556 2.043,0.093 0.707,-0.552 0.902,-1.382 0.943,-2.226 0.047,-1.132 -0.203,-2.189 -0.692,-3.214 -0.444,-0.924 -1.018,-1.755 -1.885,-2.35 -0.417,-0.242 -0.842,-0.399 -1.457,-0.332" /><path
             inkscape:connector-curvature="0"
             id="path3533"
             style="fill:#d32f2f;fill-opacity:1;fill-rule:evenodd;stroke:none"
             d="m 153.909,51.889 c -0.128,0.035 -0.245,0.077 -0.366,0.132 -0.957,0.58 -1.325,1.68 -1.551,2.726 -0.121,0.735 -0.183,1.474 -0.186,2.219 0.025,0.582 0.046,1.166 0.123,1.744 0.081,0.876 0.252,1.74 0.435,2.599 0.144,0.668 0.281,1.34 0.465,1.998 0.401,1.158 0.838,2.303 1.334,3.424 0.348,0.767 0.706,1.555 1.272,2.187 1.021,0.916 2.162,0.422 3.133,-0.317 0.457,-0.367 1.41,-0.932 1.557,-1.549 -0.811,-0.309 -1.25,-1.226 -1.619,-1.875 -0.613,-1.164 -1.16,-2.358 -1.644,-3.582 -0.379,-0.992 -0.725,-1.999 -0.931,-3.044 -0.09,-0.487 -0.187,-0.98 -0.193,-1.478 0.032,-0.31 0.106,-0.447 0.227,-0.611 0.401,-0.173 0.727,0.256 0.959,0.504 0.341,0.447 0.673,0.9 0.993,1.363 l 0.031,0 c 0.44,0.628 0.864,1.266 1.241,1.934 0.063,0.265 -0.122,0.413 -0.311,0.571 -0.2,0.173 -0.388,0.324 -0.641,0.405 l -0.134,0.134 c 0.323,0.459 0.669,0.897 1.024,1.331 0.276,0.363 0.571,0.521 1.023,0.412 0.295,-0.067 0.589,-0.136 0.869,-0.253 0.831,1.145 1.637,2.308 2.42,3.487 0.376,0.603 0.782,1.186 1.178,1.776 0.413,0.585 0.811,1.18 1.21,1.775 0.101,1.094 0.255,2.181 0.435,3.265 0.224,1.106 0.561,2.173 1.023,3.202 0.436,0.848 0.94,1.642 1.582,2.346 0.671,0.692 1.469,1.122 2.42,1.268 0.935,0.085 1.775,-0.246 2.544,-0.761 0.852,-0.672 1.381,-1.535 1.613,-2.599 l -0.062,-0.127 c -1.937,-0.69 -3.352,-1.903 -4.002,-3.899 -0.632,-2.186 -0.741,-4.427 -0.62,-6.69 0.027,-0.496 0.035,-0.993 0.062,-1.49 0.003,-0.507 0.027,-1.014 0.031,-1.521 0.026,-1.016 0.002,-2.03 -0.062,-3.044 -0.236,-2.421 -0.852,-4.837 -2.792,-6.436 -2.21,-1.604 -4.097,-1.161 -5.646,1.047 -0.428,0.663 -0.797,1.356 -1.086,2.092 -0.312,0.738 -0.661,1.458 -1.055,2.156 -0.407,-0.592 -0.838,-1.165 -1.303,-1.712 -0.136,-0.146 -0.267,-0.298 -0.403,-0.444 -0.463,-0.706 -0.946,-1.398 -1.427,-2.092 -0.468,-0.753 -1.014,-1.44 -1.644,-2.061 -0.383,-0.35 -0.76,-0.535 -1.283,-0.548 l -0.243,0.036 z m 9.197,5.931 c 0.332,-0.761 0.727,-1.485 1.17,-2.186 0.631,-0.978 1.377,-1.266 2.11,-0.221 0.363,0.544 0.464,1.164 0.496,1.807 0.028,0.772 0.03,1.543 -0.031,2.314 -0.124,1.174 -0.251,2.348 -0.403,3.519 -0.16,1.182 -0.31,2.365 -0.435,3.551 -1.365,-1.902 -2.73,-3.804 -4.094,-5.707 0.348,-0.92 0.691,-1.843 1.054,-2.758 l 0.084,-0.203 0.049,-0.116" /><path
             inkscape:connector-curvature="0"
             id="path3535"
             style="fill:#d32f2f;fill-opacity:1;fill-rule:evenodd;stroke:none"
             d="m 203.239,74.307 c -0.217,0.076 -0.382,0.151 -0.566,0.286 -0.698,0.551 -0.91,1.409 -0.974,2.26 -0.016,1.167 0.226,2.273 0.692,3.342 0.444,0.952 1.019,1.812 1.917,2.388 0.647,0.388 1.34,0.547 2.011,0.095 0.715,-0.575 0.911,-1.448 0.975,-2.323 0.016,-1.148 -0.234,-2.23 -0.692,-3.28 -0.438,-0.965 -1.01,-1.838 -1.917,-2.419 -0.374,-0.238 -0.753,-0.397 -1.202,-0.387 l -0.244,0.038" /><path
             inkscape:connector-curvature="0"
             id="path3537"
             style="fill:#d32f2f;fill-opacity:1;fill-rule:evenodd;stroke:none"
             d="m 258.312,79.025 c -0.218,0.073 -0.38,0.145 -0.565,0.279 -0.707,0.567 -0.91,1.425 -0.974,2.292 -0.017,1.166 0.237,2.271 0.692,3.342 0.443,0.948 1.022,1.785 1.917,2.356 0.645,0.413 1.346,0.578 2.011,0.096 0.708,-0.568 0.903,-1.423 0.943,-2.292 0.047,-1.161 -0.197,-2.25 -0.66,-3.311 -0.448,-0.958 -1.045,-1.805 -1.917,-2.42 -0.377,-0.225 -0.758,-0.38 -1.202,-0.376 l -0.245,0.034" /><path
             inkscape:connector-curvature="0"
             id="path3539"
             style="fill:#d32f2f;fill-opacity:1;fill-rule:evenodd;stroke:none"
             d="m 176.462,54.228 c -1.24,0.363 -1.564,1.728 -1.751,2.858 -0.21,1.403 -0.115,2.821 0.063,4.223 0.19,1.449 0.393,2.899 0.75,4.318 0.77,3.044 1.711,6.034 2.783,8.985 1.054,2.924 2.216,5.803 3.564,8.604 L 180.59,82.93 c -0.184,-0.034 -0.369,-0.06 -0.555,-0.083 -0.96,-0.042 -1.382,0.843 -1.697,1.512 -0.229,0.46 -0.674,1.153 -0.565,1.686 1.014,0.122 1.962,0.218 2.91,0.314 0.969,0.1 1.926,0.262 2.877,0.477 0.578,1.098 1.141,2.204 1.719,3.302 0.518,1 1.136,2.005 2.095,2.635 1.01,0.583 2.089,0.837 3.252,0.794 1.213,-0.068 2.13,-0.656 2.845,-1.62 l -0.062,-0.158 c -1.484,-1.171 -2.623,-2.711 -3.69,-4.255 2.346,0.288 4.689,0.601 7.035,0.889 2.354,0.255 4.709,0.508 7.066,0.731 0.501,-0.033 0.857,-0.38 1.189,-0.731 0.339,-0.371 0.66,-0.754 0.932,-1.177 l 0.06,-0.192 -0.117,-0.06 c -2.986,-0.349 -5.968,-0.734 -8.942,-1.175 -2.994,-0.445 -5.984,-0.922 -8.974,-1.396 -1.114,-1.845 -2.13,-3.741 -3.064,-5.684 -1.021,-1.993 -1.96,-4.024 -2.814,-6.096 -1.139,-2.652 -2.143,-5.352 -2.939,-8.128 -0.372,-1.347 -1.16,-3.401 -0.563,-4.794 0.451,-0.943 1.116,-0.044 1.47,0.476 0.91,1.343 1.785,2.709 2.626,4.096 0.565,0.953 1.151,1.894 1.751,2.826 l 0.188,0.317 c 0.446,0.72 0.84,1.467 1.156,2.255 -0.526,1.099 -0.624,2.246 -0.343,3.429 0.324,1.199 0.837,2.293 1.563,3.302 0.693,0.959 1.496,1.799 2.47,2.476 0.73,0.481 1.54,0.911 2.439,0.857 0.451,-0.099 0.845,-0.255 1.188,-0.571 0.43,-0.461 0.034,-1.019 -0.281,-1.429 -0.651,-0.761 -1.199,-1.587 -1.595,-2.508 -0.203,-0.487 -0.439,-0.995 -0.503,-1.522 0.096,-1.115 0.971,-1.859 1.722,-2.447 0.735,-0.664 1.494,-1.539 0.907,-2.54 -0.508,-0.684 -0.98,-1.398 -1.47,-2.095 -0.669,-1.04 -1.182,-2.163 -1.656,-3.302 -0.338,-0.819 -0.577,-1.662 -0.688,-2.54 -0.057,-0.549 -0.024,-1.122 0.594,-1.27 1.116,0.137 1.996,2.033 2.501,2.857 0.701,1.178 1.404,2.359 2.162,3.502 0.462,0.645 0.899,1.277 1.322,1.902 0.423,0.626 0.832,1.245 1.237,1.867 0.186,0.27 0.368,0.542 0.559,0.809 l 0.114,0.207 0.077,0.158 c 0.355,0.778 0.731,1.564 1.283,2.223 1.055,0.908 2.194,0.388 3.189,-0.349 0.437,-0.35 1.449,-0.945 1.549,-1.552 -0.825,-0.316 -1.261,-1.218 -1.612,-1.877 -0.644,-1.158 -1.198,-2.357 -1.688,-3.588 -0.365,-0.989 -0.699,-1.989 -0.938,-3.016 -0.094,-0.526 -0.174,-1.054 -0.188,-1.588 0.054,-0.216 0.137,-0.369 0.282,-0.539 0.345,-0.128 0.606,0.217 0.826,0.448 0.477,0.554 0.833,1.047 1.175,1.552 0.568,0.758 1.129,1.521 1.688,2.286 1.281,1.721 2.516,3.474 3.689,5.27 0.559,0.869 1.164,1.771 1.993,2.406 0.448,1.22 0.798,2.368 1.197,3.5 1.38,3.998 2.994,7.894 5.002,11.62 1.328,2.399 2.777,5.136 5.065,6.763 0.323,0.175 0.651,0.33 1.001,0.444 0.458,0.078 0.91,0.123 1.375,0.096 0.582,-0.056 1.088,-0.253 1.595,-0.54 0.626,-0.431 1.163,-0.948 1.657,-1.524 l -0.031,-0.222 c -1.358,-0.869 -2.44,-2.084 -3.439,-3.334 -1.236,-1.599 -2.359,-3.271 -3.377,-5.016 -0.994,-1.663 -1.893,-3.377 -2.752,-5.112 -0.245,-0.499 -0.494,-0.995 -0.725,-1.5 -0.212,-0.386 -0.36,-0.734 -0.516,-1.079 l -0.064,-0.216 -0.008,-0.126 0.157,0.063 c 0.531,0.685 1.176,1.224 2.032,1.429 1.049,0.199 2.001,-0.03 2.876,-0.635 0.965,-0.791 1.281,-1.861 1.251,-3.079 -0.17,-1.998 -0.685,-3.923 -1.345,-5.811 -0.736,-1.976 -1.592,-3.893 -2.657,-5.715 0.479,-0.119 0.867,0.068 1.251,0.349 0.59,0.484 1.089,1.056 1.563,1.651 0.419,0.524 0.806,1.071 1.181,1.628 0.225,0.334 0.444,0.671 0.663,1.007 l 0.032,0 c 0.357,1.483 0.822,2.929 1.376,4.35 0.737,2.058 1.613,4.049 2.657,5.969 0.53,0.928 1.081,2.131 1.984,2.761 0.953,0.118 1.761,-0.152 2.55,-0.506 0.469,-0.239 1.342,-0.651 1.094,-1.302 -1.113,-1.742 -2.124,-3.54 -3.032,-5.398 -1.207,-2.506 -2.361,-5.092 -2.877,-7.842 -0.273,-1.545 -0.022,-2.417 1.25,-0.952 1.274,1.579 2.327,3.311 3.315,5.08 0.541,0.994 1.053,2.005 1.563,3.016 0.099,0.221 0.211,0.435 0.32,0.651 0.118,0.282 0.231,0.505 0.345,0.73 0.146,0.272 0.261,0.501 0.375,0.73 0.138,0.261 0.239,0.48 0.344,0.699 0.122,0.222 0.204,0.398 0.273,0.587 0.1,0.177 0.192,0.358 0.281,0.54 0.18,0.32 0.358,0.64 0.513,0.973 0.158,0.321 0.301,0.597 0.433,0.878 0.168,0.31 0.298,0.57 0.425,0.835 0.305,0.598 0.591,1.299 1.094,1.638 1.26,0.03 2.266,-0.34 3.132,-1.117 0.33,-0.371 1.025,-1.058 0.792,-1.605 -0.865,-0.754 -1.475,-1.65 -2.011,-2.586 -0.713,-1.099 -1.324,-2.246 -1.814,-3.461 -0.787,-1.791 -1.462,-3.626 -1.813,-5.556 -0.071,-0.454 -0.471,-2.466 0.563,-2.096 0.858,0.39 1.44,1.149 1.969,1.905 0.511,0.71 0.984,1.444 1.439,2.191 0.583,0.938 1.182,1.866 1.782,2.794 0.638,0.982 1.315,1.94 2.08,2.825 0.255,0.295 0.52,0.581 0.797,0.858 0.566,1.879 1.198,3.735 1.844,5.588 1.085,2.911 2.244,5.791 3.565,8.604 l -1.251,-0.317 c -0.195,-0.031 -0.388,-0.053 -0.585,-0.062 -0.958,-0.075 -1.389,0.83 -1.697,1.49 -0.229,0.472 -0.673,1.166 -0.565,1.709 1.026,0.103 1.984,0.2 2.941,0.323 0.966,0.102 1.923,0.259 2.876,0.445 0.565,1.11 1.127,2.221 1.688,3.333 0.532,0.987 1.14,2.007 2.095,2.636 1.026,0.564 2.112,0.835 3.283,0.793 1.193,-0.097 2.106,-0.665 2.814,-1.619 l -0.062,-0.158 c -1.452,-1.213 -2.603,-2.727 -3.658,-4.287 2.332,0.318 4.667,0.605 7.003,0.89 2.352,0.284 4.708,0.536 7.066,0.761 0.51,-0.034 0.863,-0.397 1.188,-0.761 0.34,-0.37 0.681,-0.744 0.938,-1.179 l -0.031,-0.219 c -2.996,-0.352 -5.985,-0.759 -8.973,-1.174 -2.991,-0.478 -5.987,-0.928 -8.974,-1.429 -1.108,-1.837 -2.112,-3.729 -3.064,-5.652 -0.986,-2.009 -1.934,-4.036 -2.814,-6.096 -1.098,-2.643 -2.103,-5.321 -2.892,-8.074 -0.406,-1.415 -1.185,-3.469 -0.578,-4.879 0.427,-0.936 1.137,0.02 1.469,0.507 0.886,1.352 1.757,2.714 2.595,4.096 0.631,1.04 1.281,2.069 1.951,3.084 0.223,0.339 0.448,0.676 0.676,1.012 0.294,0.409 0.579,0.824 0.907,1.207 l 0.062,0.127 c 0.347,0.763 0.696,1.577 1.282,2.19 1.029,0.917 2.179,0.423 3.158,-0.318 0.444,-0.346 1.475,-0.938 1.58,-1.551 -0.829,-0.309 -1.271,-1.227 -1.643,-1.877 -0.618,-1.166 -1.169,-2.362 -1.657,-3.588 -0.382,-0.993 -0.73,-2.002 -0.938,-3.048 -0.091,-0.488 -0.189,-0.982 -0.195,-1.48 0.058,-0.304 0.139,-0.451 0.26,-0.612 0.392,-0.174 0.711,0.264 0.936,0.504 0.376,0.479 0.742,0.964 1.094,1.461 0.551,0.781 1.121,1.549 1.688,2.318 0.946,1.296 1.884,2.597 2.779,3.928 0.299,0.444 0.592,0.891 0.879,1.342 0.371,0.525 0.751,1.041 1.155,1.54 0.245,0.448 0.416,0.821 0.597,1.19 0.786,1.574 1.704,3.063 2.751,4.477 0.538,0.515 1.302,0.246 1.907,0 0.743,-0.308 1.436,-0.757 1.626,-1.587 -0.85,-1.526 -1.699,-3.052 -2.502,-4.604 -0.79,-1.589 -1.528,-3.205 -2.094,-4.89 l -0.027,-0.13 -0.004,-0.155 0.187,0.095 c 1.396,2.288 2.84,4.543 4.342,6.762 0.136,0.202 0.273,0.403 0.411,0.604 1.099,1.596 2.227,3.171 3.376,4.731 0.548,0.704 1.187,1.774 2.033,2.159 1.002,0.262 2.001,0.23 2.658,-0.667 0.464,-0.738 0.814,-1.52 0.968,-2.381 -0.828,-0.826 -1.434,-1.843 -2,-2.858 -0.682,-1.307 -1.319,-2.635 -1.876,-4 -0.738,-1.771 -1.376,-3.576 -1.751,-5.461 -0.125,-0.629 -0.428,-2.315 0.719,-1.619 0.704,0.491 1.209,1.435 1.688,2.127 0.782,1.158 1.595,2.294 2.418,3.423 0.411,0.564 0.826,1.126 1.24,1.689 l 0.282,0.38 c 0.321,0.804 0.701,1.58 1.094,2.35 1.083,2.109 2.323,4.117 3.846,5.937 0.962,1.127 2.14,2.398 3.689,2.604 2.246,0.024 3.801,-1.848 5.003,-3.524 l 0.07,-0.123 -0.195,-0.131 c -0.693,-0.122 -1.318,-0.374 -1.939,-0.699 l -0.123,-0.084 0.123,-0.17 c 0.852,-0.427 1.536,-1.402 2.157,-2.095 0.308,-0.346 1.691,-1.566 1.501,-2.096 -1.493,-0.325 -2.125,-2.489 -2.563,-3.715 -0.397,-1.15 -0.77,-2.307 -1.157,-3.46 -0.41,-1.213 -0.813,-2.428 -1.188,-3.651 -0.053,-0.172 -0.122,-0.533 0.137,-0.252 0.294,0.339 0.556,0.599 0.825,0.853 0.571,0.543 1.029,1.061 1.476,1.589 1.1,1.347 2.142,2.736 3.096,4.191 0.964,1.503 1.92,3.012 2.845,4.54 0.523,0.808 1.114,1.569 1.907,2.128 0.903,0.485 1.269,-0.458 1.47,-1.175 -2.272,-1.836 -3.905,-4.324 -5.409,-6.795 -1.823,-3.041 -4.051,-5.721 -6.637,-8.118 -0.234,-0.217 -0.471,-0.432 -0.711,-0.645 -0.36,-1.12 -0.762,-2.225 -1.157,-3.333 -0.446,-1.197 -0.892,-2.393 -1.344,-3.588 -0.922,-2.332 -1.88,-4.648 -2.939,-6.922 -0.928,-1.9 -1.914,-3.768 -3.096,-5.524 -0.738,-1.047 -1.597,-2.208 -2.845,-2.667 -0.596,-0.14 -1.103,-0.065 -1.657,0.19 -0.763,0.476 -1.064,1.323 -1.282,2.16 -0.561,2.388 -0.557,4.723 0.375,7.016 0.88,2.016 1.984,3.877 3.408,5.556 1.045,1.192 2.133,2.343 3.346,3.366 0.489,0.44 0.99,0.868 1.474,1.313 0.247,0.233 0.473,0.445 0.687,0.646 0.214,0.201 0.418,0.391 0.622,0.581 0.082,0.272 0.168,0.541 0.263,0.809 0.094,0.289 0.163,0.531 0.251,0.768 0.208,0.715 0.425,1.379 0.642,2.043 0.213,0.675 0.432,1.35 0.626,2.031 0.198,0.587 0.353,1.185 0.502,1.786 0.204,0.805 0.361,1.496 0.529,2.183 l -0.062,0.222 -0.123,-0.049 -0.064,-0.141 c -0.335,-0.592 -0.67,-1.184 -1.001,-1.778 -0.67,-1.165 -1.394,-2.293 -2.158,-3.397 -0.746,-1.01 -1.559,-1.959 -2.469,-2.826 -0.541,-0.492 -1.172,-1.01 -1.932,-0.699 -2.17,1.493 -2.24,3.907 -1.883,6.192 0.094,0.51 0.192,1.019 0.313,1.524 l -0.157,-0.286 c -0.656,-1.031 -1.314,-2.061 -1.938,-3.111 -0.754,-1.288 -1.508,-2.704 -2.595,-3.747 -1.395,-1.254 -2.766,-1.389 -3.877,0.254 -1.717,3.032 -0.469,7.35 0.281,10.478 0.037,0.423 -0.727,-0.574 -0.844,-0.731 -0.353,-0.509 -0.702,-1.021 -1.063,-1.524 -0.295,-0.471 -0.607,-0.93 -0.907,-1.397 -0.662,-1.027 -1.311,-2.063 -1.938,-3.112 -0.622,-1.075 -1.219,-2.163 -1.782,-3.27 -0.282,-0.513 -0.564,-1.025 -0.814,-1.555 -0.26,-0.477 -0.481,-0.973 -0.719,-1.461 -0.085,-0.179 -0.111,-0.224 -0.296,-0.126 -0.221,0.238 -0.399,0.408 -0.579,0.576 -0.272,0.273 -0.473,0.495 -0.689,0.703 -0.596,0.62 -0.89,1.28 -0.968,2.054 -0.071,1.043 0.243,2.136 0.469,3.143 0.303,1.254 0.656,2.492 1.063,3.715 -0.646,-0.931 -1.302,-1.856 -1.939,-2.794 -1.13,-1.708 -2.271,-3.408 -3.408,-5.112 -0.495,-0.744 -1.049,-1.438 -1.688,-2.064 -0.539,-0.49 -1.18,-0.702 -1.876,-0.381 -0.986,0.573 -1.365,1.672 -1.595,2.731 -0.122,0.737 -0.181,1.476 -0.156,2.222 0.002,0.584 0.016,1.168 0.094,1.746 0.081,0.878 0.254,1.743 0.437,2.604 l 0.063,0.286 c -0.553,-0.817 -1.065,-1.657 -1.563,-2.508 -0.934,-1.665 -1.933,-3.289 -2.97,-4.89 -0.721,-1.073 -1.96,-3.195 -3.533,-2.953 -1.226,0.371 -1.565,1.735 -1.751,2.858 -0.178,1.408 -0.111,2.818 0.062,4.222 0.193,1.429 0.421,2.852 0.75,4.255 -0.249,-0.293 -0.469,-0.604 -0.687,-0.92 -1.147,-1.613 -2.266,-3.244 -3.314,-4.922 -0.559,-0.975 -1.162,-1.922 -1.783,-2.857 -0.597,-0.926 -1.225,-1.846 -2.032,-2.604 -0.742,-0.66 -1.594,-1.273 -2.627,-1.27 -0.785,0.029 -1.228,0.528 -1.438,1.238 -0.237,0.929 -0.328,1.869 -0.281,2.826 0.033,0.691 0.094,1.379 0.188,2.064 0.1,0.562 0.195,1.125 0.32,1.682 0.07,0.408 0.055,0.667 -0.182,0.274 -0.614,-1.055 -1.195,-2.02 -1.795,-2.972 -0.52,-0.893 -1.061,-1.771 -1.627,-2.635 -0.9,-1.397 -2.606,-4.138 -4.627,-3.08 -1.637,1.056 -1.282,3.67 -1.094,5.302 -0.095,-0.159 -0.197,-0.31 -0.308,-0.459 -0.866,-1.036 -1.786,-2.088 -3.006,-2.589 -0.683,-0.198 -1.362,-0.222 -2.033,0.032 -0.723,-1.155 -1.652,-2.099 -2.782,-2.858 -0.663,-0.457 -1.372,-0.8 -2.158,-0.984 -0.686,-0.135 -1.328,-0.023 -1.907,0.381 -0.696,0.59 -1.114,1.357 -1.376,2.223 -0.456,1.656 -0.413,3.384 -0.25,5.08 0.141,1.693 0.434,3.36 0.813,5.016 -1.491,-1.768 -2.817,-3.663 -4.096,-5.588 -1.158,-1.696 -2.292,-3.409 -3.439,-5.112 -0.488,-0.731 -1.044,-1.403 -1.657,-2.031 -0.557,-0.512 -1.189,-0.732 -1.908,-0.382 -0.982,0.568 -1.355,1.639 -1.563,2.699 -0.151,0.733 -0.214,1.474 -0.187,2.223 0.003,0.583 0.047,1.164 0.094,1.746 0.077,0.79 0.213,1.572 0.374,2.349 -0.334,-0.465 -0.665,-0.932 -1,-1.397 -1.046,-1.567 -2.066,-3.152 -3.095,-4.73 -0.848,-1.309 -1.916,-3.31 -3.471,-3.906 -2.276,-0.622 -2.89,1.284 -3.002,3.207 -0.07,2.476 0.614,4.865 1.439,7.176 0.234,0.743 0.169,1.413 -0.375,2 -0.117,-0.125 -0.228,-0.256 -0.344,-0.381 l -0.782,-1.175 c -0.51,-0.741 -1.02,-1.483 -1.532,-2.222 -0.294,-0.422 -0.574,-0.854 -0.875,-1.27 l -0.219,-0.349 c -0.938,-1.673 -1.929,-3.312 -2.971,-4.922 -0.744,-1.092 -1.842,-2.929 -3.354,-2.974 l -0.179,0.021 z m 35.678,14.001 c -0.087,-0.264 -0.171,-0.528 -0.253,-0.793 -0.307,-1.107 -0.553,-2.228 -0.719,-3.365 -0.211,-1.33 -0.62,-3.184 0.156,-4.413 0.493,-0.707 1.055,-0.355 1.501,0.19 0.407,0.517 0.71,1.096 1,1.683 -0.645,0.613 -0.935,1.466 -1.118,2.317 -0.2,1.04 -0.216,2.058 -0.163,3.08 0.095,1.089 0.249,2.168 0.468,3.239 l 0.028,0.166 0,0.211 -0.092,-0.162 -0.092,-0.247 c -0.266,-0.604 -0.49,-1.225 -0.716,-1.906 z m 72.477,-9.972 -0.164,-0.066 -0.185,-0.153 c -1.937,-1.627 -3.524,-3.584 -4.971,-5.651 -1.571,-2.349 -2.306,-4.874 -1.845,-7.684 0.311,-1.469 1.065,-1.259 1.814,-0.158 1.123,1.818 2.005,3.759 2.782,5.746 0.552,1.393 1.048,2.806 1.532,4.223 0.201,0.589 0.392,1.18 0.563,1.778 0.175,0.505 0.335,1.016 0.501,1.524 0.036,0.177 0.059,0.262 0,0.433 l -0.027,0.008 z M 214.506,69.933 214.42,69.5 c -0.235,-1.164 -0.367,-2.335 -0.344,-3.524 0.032,-0.826 0.12,-1.697 0.719,-2.318 0.298,0.649 0.495,1.345 0.688,2.032 0.331,1.056 0.605,2.127 0.844,3.207 0.194,0.999 0.358,2.004 0.469,3.016 0.048,0.527 0.143,1.208 -0.25,1.619 -0.608,0.243 -0.968,-0.536 -1.188,-0.984 -0.357,-0.772 -0.611,-1.576 -0.805,-2.404 l -0.047,-0.211 z m 68.299,-0.57 -0.037,-0.18 c -0.149,-0.641 -0.263,-1.344 0.093,-1.937 0.384,-0.497 0.821,-0.089 1.126,0.286 1.23,1.559 2.236,3.277 3.189,5.016 0.324,0.612 0.632,1.231 0.926,1.856 0.881,1.876 1.635,3.807 2.326,5.764 0.052,0.192 0.195,0.446 -0.021,0.542 -1.778,-1.59 -3.254,-3.313 -4.575,-5.178 -0.701,-1.009 -1.346,-2.049 -1.908,-3.143 -0.471,-0.948 -0.869,-1.93 -1.105,-2.965 l -0.014,-0.061" /></g></g></g></g></svg>